<svg xmlns="http://www.w3.org/2000/svg" xmlns:xlink="http://www.w3.org/1999/xlink" width="126.258" height="154" viewBox="0 0 126.258 154">
  <defs>
    <clipPath id="clip-path">
      <path id="Caminho_174" data-name="Caminho 174" d="M75.367,3.459C53.578,13.971,51.2,32.189,49.276,46.824c-.38,2.931-.754,5.785-1.274,8.412C43.786,44.589,37.144,33.943,31.953,32.065L27.36,30.4l.665,4.841c1.256,9.127-1.385,15.474-4.178,22.2a62.377,62.377,0,0,0-4.513,14.039,44.771,44.771,0,0,1-1.184-13l.659-9.805-5.954,7.816A61.475,61.475,0,0,0,0,93.839v.5a66.423,66.423,0,0,0,2.472,17.508c5.1,18.36,17.65,33.9,31.982,39.6L40.887,154l-2.612-6.413a29.994,29.994,0,0,1-.691-20.045,35.28,35.28,0,0,0,3.371,7.837l4.986,3.92.369-6.276c-1.765-6.191-.309-9.689,1.377-13.743a39.1,39.1,0,0,0,1.9-5.286,36.319,36.319,0,0,1,3.171,7.89l1.865,7.175,3.58-6.492c1.522-2.765,1.963-6.125,2.424-9.681.7-5.3,1.406-10.728,5.682-14.857a46.057,46.057,0,0,0,2.622,9.343C70.68,112.3,72.494,117.4,71.6,122.183l-.2,7.616,5.7-5.677a46.573,46.573,0,0,0,4.181-10.652c3.4,8.763,1.179,16.985-.52,18.958l-3.548,7.244,7.133-2.691a14.632,14.632,0,0,0,5.474-5.215,33.277,33.277,0,0,1-1.992,15.872l-1.976,5.139,5.371-1.195c10.942-2.43,20.974-11.5,27.526-24.894,9.583-19.584,10.016-43.417,1.126-62.2l-4.529-5.545L114.26,65.75a28.817,28.817,0,0,1-2.709,11.433A62.367,62.367,0,0,0,98.2,29.118L92.7,22.265l.251,8.787a64.383,64.383,0,0,1-4.012,22.942c-1.105-7.006-3.522-13.794-5.761-20.085C79.611,23.9,76.246,14.441,79.356,7.3L82.537,0Z" transform="translate(0 -0.001)" fill="#386011"/>
    </clipPath>
  </defs>
  <g id="Grupo_484" data-name="Grupo 484" transform="translate(0 -0.001)">
    <g id="Grupo_483" data-name="Grupo 483" transform="translate(0 0.001)" clip-path="url(#clip-path)">
      <rect id="Retângulo_37" data-name="Retângulo 37" width="128.771" height="154" transform="translate(0 -0.001)" fill="#386011"/>
    </g>
  </g>
</svg>
