<svg id="Grupo_464" data-name="Grupo 464" xmlns="http://www.w3.org/2000/svg" xmlns:xlink="http://www.w3.org/1999/xlink" width="139.479" height="139.479" viewBox="0 0 139.479 139.479">
  <defs>
    <clipPath id="clip-path">
      <rect id="Retângulo_16" data-name="Retângulo 16" width="139.479" height="139.479" fill="#386011"/>
    </clipPath>
  </defs>
  <g id="Grupo_463" data-name="Grupo 463" transform="translate(0 0)" clip-path="url(#clip-path)">
    <path id="Caminho_156" data-name="Caminho 156" d="M300.166,218.861a9.45,9.45,0,0,1-7.4-2.9q-2.618-2.9-2.618-8.205H280.132q0,8.331,4.39,13.381t12.552,5.975v8.163h6.554v-8.205q7.626-.8,11.892-5.217t4.266-11.529a17.931,17.931,0,0,0-1.113-6.606,15.347,15.347,0,0,0-3.174-4.986,21.266,21.266,0,0,0-5.07-3.85,62.677,62.677,0,0,0-8.286-3.661q-5.277-1.977-7.481-4.187a7.939,7.939,0,0,1-2.205-5.869,7.677,7.677,0,0,1,8.409-8.458,7.54,7.54,0,0,1,6.328,3.05q2.328,3.051,2.329,8.352H319.5q0-8.246-3.916-13.4a16.25,16.25,0,0,0-11.088-6.206v-9.257h-6.6v9.173a17.59,17.59,0,0,0-11.295,5.343,16.255,16.255,0,0,0-4.163,11.487q0,10.309,9.6,15.569a57.617,57.617,0,0,0,8.079,3.471q5.194,1.873,7.42,4.208a8.225,8.225,0,0,1,2.226,5.912,8.051,8.051,0,0,1-2.453,6.144q-2.453,2.315-7.152,2.314" transform="translate(-231.224 -128.33)" fill="#386011"/>
    <path id="Caminho_157" data-name="Caminho 157" d="M125.678,25.573A70.428,70.428,0,0,0,90.218.186a4.162,4.162,0,0,0-5.212,2.835,4.279,4.279,0,0,0,2.777,5.32c26.041,8.1,43.537,32.229,43.537,60.045,0,34.606-27.582,62.76-61.484,62.76S8.352,102.993,8.352,68.387A62.98,62.98,0,0,1,22.24,28.649L28.171,34.7a2.247,2.247,0,0,0,3.845-1.625V13.6a.969.969,0,0,0-.959-.979H11.978a2.305,2.305,0,0,0-1.593,3.925l5.92,6.043A71.523,71.523,0,0,0,0,68.387c0,39.307,31.328,71.286,69.836,71.286s69.836-31.978,69.836-71.286a71.645,71.645,0,0,0-13.994-42.814" transform="translate(0 -0.193)" fill="#386011"/>
  </g>
</svg>
