<svg xmlns="http://www.w3.org/2000/svg" xmlns:xlink="http://www.w3.org/1999/xlink" width="266" height="266" viewBox="0 0 266 266">
  <defs>
    <linearGradient id="linear-gradient" x1="0.322" y1="0.266" x2="0.647" y2="0.752" gradientUnits="objectBoundingBox">
      <stop offset="0" stop-color="#fff"/>
      <stop offset="0.485" stop-color="#e3e3e3"/>
      <stop offset="1" stop-color="#fff"/>
    </linearGradient>
    <clipPath id="clip-path">
      <rect id="Retângulo_8" data-name="Retângulo 8" width="266" height="266" fill="none"/>
    </clipPath>
  </defs>
  <g id="Grupo_461" data-name="Grupo 461" transform="translate(-951 6204)">
    <circle id="Elipse_13" data-name="Elipse 13" cx="132.927" cy="132.927" r="132.927" transform="translate(951 -6204)" fill="url(#linear-gradient)"/>
    <g id="Grupo_460" data-name="Grupo 460" transform="translate(951 -6204)">
      <path id="Caminho_82" data-name="Caminho 82" d="M27.971,187.5l1.662-4.654,15.293.665-12.3-9.641,1.33-3.657,15.626.333-12.3-9.309,1.662-4.322,17.621,13.964-1.33,3.657L40.272,174.2l11.636,9.309-1.33,3.657Z" transform="translate(-14.34 -80.468)" fill="#4a8b2c"/>
      <path id="Caminho_83" data-name="Caminho 83" d="M72.6,129.838l-15.293-.665,2.992-4.322,9.974.665-3.989-9.309,2.992-4.322,5.652,13.963,6.981,4.987-2.66,3.657Z" transform="translate(-29.38 -57.377)" fill="#4a8b2c"/>
      <path id="Caminho_84" data-name="Caminho 84" d="M92.783,87.346l2.992-2.66L112.4,88.011l-8.976-9.974,3.325-2.992L120.71,91l-2.992,2.66-16.956-3.325,9.309,10.306-3.325,2.992Z" transform="translate(-47.581 -38.474)" fill="#4a8b2c"/>
      <g id="Grupo_451" data-name="Grupo 451">
        <g id="Grupo_450" data-name="Grupo 450" clip-path="url(#clip-path)">
          <path id="Caminho_85" data-name="Caminho 85" d="M138.492,57.538,145.8,53.55c5.983-3.324,11.966-1.33,14.957,3.989s1,11.633-4.985,14.625l-7.312,3.989Zm5.983,1.33L150.79,70.5l3.324-1.662c3.324-1.995,4.653-5.318,2.659-8.974a6.213,6.213,0,0,0-8.974-2.659Z" transform="translate(-71.019 -26.627)" fill="#4a8b2c"/>
        </g>
      </g>
      <path id="Caminho_86" data-name="Caminho 86" d="M191.023,33.308l4.322-1,2.327,8.312,8.312-2.66-2.327-8.311,4.322-1,5.32,20.613-4.322,1-2.327-8.311L198,44.279l2.327,8.312-4.322,1Z" transform="translate(-97.96 -14.69)" fill="#4a8b2c"/>
      <path id="Caminho_87" data-name="Caminho 87" d="M251.848,24.56h3.99l9.642,20.946h-4.655l-1.995-4.655-9.309.333-1.995,4.987h-4.655Zm5.32,12.634-3.325-6.982-2.66,7.314Z" transform="translate(-124.549 -12.591)" fill="#4a8b2c"/>
      <path id="Caminho_88" data-name="Caminho 88" d="M300.74,25.925l4.654,1,3.657,10.306,7.647-7.647,4.654,1L316.7,51.192l-4.322-1L315.7,36.564l-7.979,7.647L303.732,33.9,300.74,47.535l-4.654-1Z" transform="translate(-151.838 -13.291)" fill="#4a8b2c"/>
      <g id="Grupo_453" data-name="Grupo 453">
        <g id="Grupo_452" data-name="Grupo 452" clip-path="url(#clip-path)">
          <path id="Caminho_89" data-name="Caminho 89" d="M354.839,56.413h0c2.659-4.985,8.31-7.645,13.96-4.985a11.166,11.166,0,0,1,5.318,4.985c0,.332.332.665,0,1-.332.665-1,.665-1.662.665-.332,0-.332-.332-.665-.665-.665-1.662-1.994-2.991-4.32-4.321-3.989-1.995-8.642,0-10.636,3.988a7.966,7.966,0,0,0,3.324,11.3,8.439,8.439,0,0,0,6.315.665l2.326-4.654L364.146,62.4c-.332-.332-.664-1-.332-1.33a.822.822,0,0,1,1.329-.332l5.983,2.991c.665.332.665,1,.665,1.662l-2.659,5.65a4.606,4.606,0,0,1-1.33,1,12.612,12.612,0,0,1-7.645-1c-6.315-3.656-7.977-9.639-5.318-14.625" transform="translate(-181.339 -25.834)" fill="#4a8b2c"/>
          <path id="Caminho_90" data-name="Caminho 90" d="M402.162,72.419c.332-.665,1-.665,1.662-.332l5.983,4.653a8.527,8.527,0,0,1,3.324,5.318,5.8,5.8,0,0,1-1.33,3.989c-1.994,2.659-4.985,2.659-7.977,1.33v8.309a1.22,1.22,0,0,1-.333,1c-.332.332-1.33.665-1.662,0a1.222,1.222,0,0,1-.332-1l.332-9.306-4.653-3.656-4.321,5.318c-.332.665-1,.665-1.662.332a1.1,1.1,0,0,1,0-1.662Zm.665,12.631c2.327,1.994,4.986,1.994,6.647,0s1-4.321-1.662-6.315l-4.653-4.321-5.318,6.315Z" transform="translate(-200.409 -36.854)" fill="#4a8b2c"/>
          <path id="Caminho_91" data-name="Caminho 91" d="M423.174,117.116l13.96-11.633a1.511,1.511,0,0,1,1.662,0l7.977,9.639a.94.94,0,0,1-1.33,1.33l-7.312-8.975-5.318,4.321,6.647,7.977a.94.94,0,1,1-1.33,1.33l-6.647-7.977-5.65,4.653,7.312,8.974a.94.94,0,1,1-1.33,1.33l-8.31-9.971c-1,.332-1-.665-.332-1" transform="translate(-216.768 -53.964)" fill="#4a8b2c"/>
          <path id="Caminho_92" data-name="Caminho 92" d="M447.384,151.764l15.954-8.642a1.462,1.462,0,0,1,1.662.332l5.983,10.969c.332.665,0,1-.332,1.33-.665.332-1,0-1.33-.333l-5.65-9.971-5.983,3.324,4.985,8.974c.333.665,0,1-.332,1.33-.665.332-1,0-1.33-.332l-5.65-8.974-6.315,3.324,5.65,10.3c.332.665,0,1-.332,1.33-.665.332-1,0-1.33-.332l-6.315-11.3c-.333-.332,0-1,.665-1.33" transform="translate(-229.013 -73.323)" fill="#4a8b2c"/>
          <path id="Caminho_93" data-name="Caminho 93" d="M482.43,185.47a.981.981,0,0,1,1.33.665v.333c0,.665,0,1-.332,1.33l-11.633,16.286,14.625-4.321c.664-.333,1.329,0,1.329.665a.981.981,0,0,1-.665,1.33l-17.616,5.318c-.665.332-1,0-1.329-.665a2,2,0,0,1,.333-1.33l11.965-16.951-15.29,4.653c-.665.332-1.33,0-1.33-.665a.981.981,0,0,1,.665-1.33Z" transform="translate(-237.801 -95.063)" fill="#4a8b2c"/>
        </g>
      </g>
      <path id="Caminho_94" data-name="Caminho 94" d="M159.765,461.184l11.636,5.652-.665,1.995-9.641-4.654-2.66,4.987,8.644,3.99-1,1.995-8.644-3.989-2.659,5.319,9.641,4.654-1,2-11.969-5.652Z" transform="translate(-77.668 -236.509)" fill="#4a8b2c"/>
      <path id="Caminho_95" data-name="Caminho 95" d="M210.271,479.833l-8.644,6.649,3.99,10.639-2.66-.665-3.324-8.644-7.314,5.652-2.66-.665,8.977-6.982-3.99-10.306,2.66.665,2.992,8.311,6.982-5.652Z" transform="translate(-97.26 -243.854)" fill="#4a8b2c"/>
      <g id="Grupo_455" data-name="Grupo 455">
        <g id="Grupo_454" data-name="Grupo 454" clip-path="url(#clip-path)">
          <path id="Caminho_96" data-name="Caminho 96" d="M240.109,485.744l6.647.665c3.989.333,6.648,2.659,6.315,6.316-.332,3.988-3.656,5.65-7.645,5.318l-3.989-.332-.665,5.983h-1.994Zm5.983,10.3c2.659.332,4.653-1,4.985-3.324s-1.662-3.656-4.321-3.989l-4.32-.332-.665,7.312Z" transform="translate(-122.447 -249.092)" fill="#4a8b2c"/>
        </g>
      </g>
      <path id="Caminho_97" data-name="Caminho 97" d="M279.03,486.392,292,485.062l.332,1.995-10.639,1,.665,5.652,9.642-1,.332,2-9.642,1,.665,5.652,10.639-1,.332,1.995-13.3,1.33Z" transform="translate(-143.09 -248.751)" fill="#4a8b2c"/>
      <g id="Grupo_457" data-name="Grupo 457">
        <g id="Grupo_456" data-name="Grupo 456" clip-path="url(#clip-path)">
          <path id="Caminho_98" data-name="Caminho 98" d="M316.553,481.217l7.645-1.995a6.971,6.971,0,0,1,5.318.332,5.306,5.306,0,0,1,2.327,2.991c.665,2.991-.665,4.986-2.991,6.315l6.98,5.651-2.659.665-6.648-5.318-4.653,1.33,1.662,6.648-2.326.664Zm9.639,6.647c2.327-.665,3.989-2.327,3.324-4.653-.665-1.994-2.326-2.991-4.985-1.994l-4.986,1.329,1.662,6.648Z" transform="translate(-162.33 -245.562)" fill="#4a8b2c"/>
        </g>
      </g>
      <path id="Caminho_99" data-name="Caminho 99" d="M358.345,466.5l-5.32,2.66-1-2,12.966-5.984,1,2-5.319,2.66,6.649,14.3-1.995,1Z" transform="translate(-180.525 -236.509)" fill="#4a8b2c"/>
      <g id="Grupo_459" data-name="Grupo 459">
        <g id="Grupo_458" data-name="Grupo 458" clip-path="url(#clip-path)">
          <path id="Caminho_100" data-name="Caminho 100" d="M246.163,86.643c-1.33.332-2.327,1.33-1.994,2.659a2.527,2.527,0,0,0,2.659,1.994,2.13,2.13,0,0,0,1.995-2.659,2.785,2.785,0,0,0-2.659-1.994" transform="translate(-125.178 -44.431)" fill="#4a8b2c"/>
          <path id="Caminho_101" data-name="Caminho 101" d="M363.926,114.478a2.373,2.373,0,0,0,3.324-1,2.4,2.4,0,1,0-3.988-2.659,2.942,2.942,0,0,0,.664,3.656" transform="translate(-186.105 -56.312)" fill="#4a8b2c"/>
          <path id="Caminho_102" data-name="Caminho 102" d="M293.357,88.569a2.527,2.527,0,0,0,1.994,2.659c1.33.332,2.327-.665,2.659-1.995s-.664-2.326-1.994-2.659a2.129,2.129,0,0,0-2.659,1.994" transform="translate(-150.435 -44.363)" fill="#4a8b2c"/>
          <path id="Caminho_103" data-name="Caminho 103" d="M270.441,89.932a2.327,2.327,0,1,0-2.327-2.327,2.5,2.5,0,0,0,2.327,2.327" transform="translate(-137.49 -43.731)" fill="#4a8b2c"/>
          <path id="Caminho_104" data-name="Caminho 104" d="M363.771,437.016c-1,.665-1.662,1.994-.665,2.991a2.5,2.5,0,0,0,3.324.665c1-.665,1.662-1.994.665-2.991-.665-.665-2.326-1.329-3.324-.665" transform="translate(-185.95 -223.963)" fill="#4a8b2c"/>
          <path id="Caminho_105" data-name="Caminho 105" d="M317.145,93.012A2.378,2.378,0,0,0,318.807,96c1.33.332,2.659-.332,2.659-1.662s-.332-2.659-1.662-2.991c-1-.332-2.327.665-2.659,1.662" transform="translate(-162.59 -46.812)" fill="#4a8b2c"/>
          <path id="Caminho_106" data-name="Caminho 106" d="M88.862,326.945a2.183,2.183,0,0,0,1.662-2.659,2.675,2.675,0,0,0-2.991-1.662,2.183,2.183,0,0,0-1.662,2.659,2.378,2.378,0,0,0,2.991,1.662" transform="translate(-43.992 -165.41)" fill="#4a8b2c"/>
          <path id="Caminho_107" data-name="Caminho 107" d="M123.032,159.277a2.4,2.4,0,0,0-2.659,3.989,2.474,2.474,0,0,0,2.991-.333,2.978,2.978,0,0,0-.332-3.656" transform="translate(-61.209 -81.501)" fill="#4a8b2c"/>
          <path id="Caminho_108" data-name="Caminho 108" d="M119.77,388.917a2.22,2.22,0,0,0-.332,3.324,2.556,2.556,0,0,0,3.324.332,2.362,2.362,0,0,0-2.991-3.656h0" transform="translate(-60.94 -199.13)" fill="#4a8b2c"/>
          <path id="Caminho_109" data-name="Caminho 109" d="M105.928,368.052a3.008,3.008,0,0,0-1,3.324,2.454,2.454,0,1,0,4.321-2.326,2.3,2.3,0,0,0-3.324-1" transform="translate(-53.745 -188.569)" fill="#4a8b2c"/>
          <path id="Caminho_110" data-name="Caminho 110" d="M109.069,179.758a1.971,1.971,0,0,0-2.991,1,2.373,2.373,0,0,0,1,3.324c1,.665,2.659.332,2.991-.665s0-2.991-1-3.656" transform="translate(-54.227 -92.011)" fill="#4a8b2c"/>
          <path id="Caminho_111" data-name="Caminho 111" d="M135.658,141.116a2.22,2.22,0,0,0,0,3.324c.665,1,2.327,1,3.324.332l.332-.332a2.22,2.22,0,0,0,0-3.324,2.608,2.608,0,0,0-3.656,0" transform="translate(-69.182 -71.981)" fill="#4a8b2c"/>
          <path id="Caminho_112" data-name="Caminho 112" d="M197.684,99.479c-1.33.332-1.662,1.994-1.33,2.991.332,1.33,1.662,1.662,2.991,1.33s1.662-1.994,1.33-2.991c-.332-1.33-1.662-1.662-2.991-1.33" transform="translate(-100.63 -50.952)" fill="#4a8b2c"/>
          <path id="Caminho_113" data-name="Caminho 113" d="M221.249,91.349a2.183,2.183,0,0,0-1.662,2.659,2.42,2.42,0,0,0,4.653-1.33,2.93,2.93,0,0,0-2.991-1.33" transform="translate(-112.562 -46.81)" fill="#4a8b2c"/>
          <path id="Caminho_114" data-name="Caminho 114" d="M340.838,100.844a2.021,2.021,0,0,0,1.33,2.991c1.329.332,2.659,0,2.991-1.33a2.021,2.021,0,0,0-1.329-2.991,2.5,2.5,0,0,0-2.991,1.33" transform="translate(-174.65 -50.987)" fill="#4a8b2c"/>
          <path id="Caminho_115" data-name="Caminho 115" d="M445.481,205.821a2.683,2.683,0,0,0,1.33-2.991,2.378,2.378,0,0,0-2.991-1.662,2.021,2.021,0,0,0-1.329,2.991v.332a2.892,2.892,0,0,0,2.991,1.33" transform="translate(-226.777 -103.116)" fill="#4a8b2c"/>
          <path id="Caminho_116" data-name="Caminho 116" d="M452.263,327.607c1.33.332,2.659-.332,2.659-1.662a2.055,2.055,0,0,0-1.662-2.659,2.378,2.378,0,0,0-2.991,1.662,3.116,3.116,0,0,0,1.994,2.659" transform="translate(-230.9 -165.739)" fill="#4a8b2c"/>
          <path id="Caminho_117" data-name="Caminho 117" d="M455.658,251.6a2.35,2.35,0,0,0,4.653-.665c-.332-1.33-1.329-2.327-2.659-1.995s-2.326,1.33-1.994,2.659" transform="translate(-233.631 -127.627)" fill="#4a8b2c"/>
          <path id="Caminho_118" data-name="Caminho 118" d="M452.524,225.046a2.183,2.183,0,0,0-1.662,2.659c.332,1,1.662,1.994,2.659,1.662s1.994-1.662,1.662-2.659a2.183,2.183,0,0,0-2.659-1.662" transform="translate(-231.161 -115.361)" fill="#4a8b2c"/>
          <path id="Caminho_119" data-name="Caminho 119" d="M459.629,300.791c.332-1.33-.665-2.327-1.994-2.659a2.528,2.528,0,0,0-2.659,1.995c-.332,1.329.664,2.326,1.994,2.659,1.33,0,2.659-.664,2.659-1.994" transform="translate(-233.281 -152.884)" fill="#4a8b2c"/>
          <path id="Caminho_120" data-name="Caminho 120" d="M443.967,349.935a2.315,2.315,0,1,0-1.33-2.991c-.332,1.33,0,2.659,1.33,2.991" transform="translate(-226.925 -177.099)" fill="#4a8b2c"/>
          <path id="Caminho_121" data-name="Caminho 121" d="M457.091,275.9a2.327,2.327,0,1,0,2.326-2.327,2.272,2.272,0,0,0-2.326,2.327" transform="translate(-234.399 -140.289)" fill="#4a8b2c"/>
          <path id="Caminho_122" data-name="Caminho 122" d="M383.937,423.71c-1,.665-1,2.327-.332,3.324s2.326,1,3.324.332,1-2.326.332-3.324a2.186,2.186,0,0,0-3.324-.332h0" transform="translate(-196.477 -216.972)" fill="#4a8b2c"/>
          <path id="Caminho_123" data-name="Caminho 123" d="M405.681,141.116a2.22,2.22,0,0,0-3.324,0c-1,.665-1,2.327-.332,3.324l.332.332a2.22,2.22,0,0,0,3.324,0,2.608,2.608,0,0,0,0-3.656" transform="translate(-205.923 -71.981)" fill="#4a8b2c"/>
          <path id="Caminho_124" data-name="Caminho 124" d="M418.781,389.169a2.35,2.35,0,1,0,3.324,3.324l.332-.332a2.556,2.556,0,0,0-.332-3.324l-.332-.332a2.165,2.165,0,0,0-2.991.665" transform="translate(-214.369 -199.05)" fill="#4a8b2c"/>
          <path id="Caminho_125" data-name="Caminho 125" d="M386.783,124.466a3.058,3.058,0,0,0-3.324.332c-1,.665-.665,2.327.332,3.324a2.556,2.556,0,0,0,3.324-.332c1-1,.665-2.326-.332-3.324" transform="translate(-196.331 -63.641)" fill="#4a8b2c"/>
          <path id="Caminho_126" data-name="Caminho 126" d="M402.533,407.9a2.527,2.527,0,0,0,0,3.324c.664,1,2.327.665,3.324,0a2.48,2.48,0,0,0,0-2.991,2.023,2.023,0,0,0-3.324-.332h0" transform="translate(-206.098 -208.811)" fill="#4a8b2c"/>
          <path id="Caminho_127" data-name="Caminho 127" d="M436,180.253a2.4,2.4,0,1,0-.665,3.324,2.5,2.5,0,0,0,.665-3.324" transform="translate(-221.285 -91.841)" fill="#4a8b2c"/>
          <path id="Caminho_128" data-name="Caminho 128" d="M132.951,0A132.951,132.951,0,1,0,265.9,132.951,132.914,132.914,0,0,0,132.951,0m0,263.574c-72.126,0-130.292-58.5-130.292-130.624S60.825,2.326,132.951,2.326a130.624,130.624,0,0,1,0,261.248" fill="#4a8b2c"/>
          <path id="Caminho_129" data-name="Caminho 129" d="M434.808,368.038a2.4,2.4,0,1,0,.665,3.324,2.223,2.223,0,0,0-.665-3.324" transform="translate(-221.09 -188.554)" fill="#4a8b2c"/>
          <path id="Caminho_130" data-name="Caminho 130" d="M421.673,159.786a2.4,2.4,0,0,0-3.989,2.659l.333.332a2.577,2.577,0,0,0,3.324.665c1-1.329,1.33-2.659.332-3.656" transform="translate(-213.938 -81.345)" fill="#4a8b2c"/>
          <path id="Caminho_131" data-name="Caminho 131" d="M200.676,450.939c.332-1,0-2.659-1.33-2.992a2.021,2.021,0,0,0-2.991,1.33c-.332,1.329,0,2.659,1.33,2.991a2.458,2.458,0,0,0,2.991-1.33" transform="translate(-100.63 -229.576)" fill="#4a8b2c"/>
          <path id="Caminho_132" data-name="Caminho 132" d="M223.908,459.067c.332-1.33-.332-2.659-1.662-2.659s-2.659.332-2.659,1.662c-.332,1.33.332,2.659,1.662,2.659a2.288,2.288,0,0,0,2.659-1.662" transform="translate(-112.562 -234.048)" fill="#4a8b2c"/>
          <path id="Caminho_133" data-name="Caminho 133" d="M178.178,111.5a2.5,2.5,0,0,0-3.324-.665c-1.33.665-1.33,1.994-.665,3.324a2.3,2.3,0,0,0,3.324,1,3.114,3.114,0,0,0,.665-3.656" transform="translate(-89.101 -56.661)" fill="#4a8b2c"/>
          <path id="Caminho_134" data-name="Caminho 134" d="M174.524,438.289c-.333,1.33,0,2.659,1.329,2.991a2.587,2.587,0,0,0,2.66-.665,1.971,1.971,0,0,0-1-2.991,2.164,2.164,0,0,0-2.991.665" transform="translate(-89.435 -224.239)" fill="#4a8b2c"/>
          <path id="Caminho_135" data-name="Caminho 135" d="M243.554,462.5a2.527,2.527,0,0,0,1.994,2.659c1.33.332,2.327-.665,2.659-1.995s-.665-2.326-1.994-2.659a2.527,2.527,0,0,0-2.659,1.994" transform="translate(-124.896 -236.148)" fill="#4a8b2c"/>
          <path id="Caminho_136" data-name="Caminho 136" d="M295.265,465.087a2.35,2.35,0,0,0-.664-4.653c-1.33.332-2.327,1.33-1.995,2.659a2.527,2.527,0,0,0,2.659,1.994" transform="translate(-150.017 -236.08)" fill="#4a8b2c"/>
          <path id="Caminho_137" data-name="Caminho 137" d="M341.669,448.1a2.893,2.893,0,0,0-1.33,2.991,2.332,2.332,0,0,0,2.991,1.33,2.459,2.459,0,0,0,1.33-2.991c-.332-1.33-1.662-1.662-2.991-1.33" transform="translate(-174.483 -229.724)" fill="#4a8b2c"/>
          <path id="Caminho_138" data-name="Caminho 138" d="M268.114,464.193a2.327,2.327,0,1,0,2.327-2.327,2.5,2.5,0,0,0-2.327,2.327" transform="translate(-137.49 -236.847)" fill="#4a8b2c"/>
          <path id="Caminho_139" data-name="Caminho 139" d="M154.563,124.483a2.22,2.22,0,0,0-.332,3.324c1,1,2.326,1.33,3.324.332a2.1,2.1,0,0,0,.332-2.991,2.578,2.578,0,0,0-3.324-.665" transform="translate(-78.782 -63.658)" fill="#4a8b2c"/>
          <path id="Caminho_140" data-name="Caminho 140" d="M321.116,457.3a2.42,2.42,0,0,0-4.653,1.329,2.183,2.183,0,0,0,2.659,1.662,2.358,2.358,0,0,0,1.994-2.991" transform="translate(-162.24 -233.61)" fill="#4a8b2c"/>
          <path id="Caminho_141" data-name="Caminho 141" d="M138.981,407.184a2.35,2.35,0,1,0-3.324,3.324c.665,1,2.326,1,3.324.332l.332-.332c.665-.665.665-1.994-.332-3.324h0" transform="translate(-69.182 -208.422)" fill="#4a8b2c"/>
          <path id="Caminho_142" data-name="Caminho 142" d="M153.819,424.042a2.4,2.4,0,0,0,3.989,2.659,2.474,2.474,0,0,0-.333-2.991,2.632,2.632,0,0,0-3.656.332h0" transform="translate(-78.702 -216.972)" fill="#4a8b2c"/>
          <path id="Caminho_143" data-name="Caminho 143" d="M82.147,278.226A2.327,2.327,0,1,0,79.82,275.9a2.8,2.8,0,0,0,2.327,2.327" transform="translate(-40.932 -140.29)" fill="#4a8b2c"/>
          <path id="Caminho_144" data-name="Caminho 144" d="M83.179,253.6a2.527,2.527,0,0,0,2.659-1.994c.332-1.33-.665-2.327-1.995-2.659s-2.326.665-2.659,1.994a2.527,2.527,0,0,0,1.994,2.659" transform="translate(-41.632 -127.627)" fill="#4a8b2c"/>
          <path id="Caminho_145" data-name="Caminho 145" d="M90.524,227.354a2.42,2.42,0,1,0-4.653-1.33c-.332,1.33.332,2.659,1.662,2.659a2.021,2.021,0,0,0,2.991-1.33" transform="translate(-43.992 -115.011)" fill="#4a8b2c"/>
          <path id="Caminho_146" data-name="Caminho 146" d="M97.729,350.083a2.458,2.458,0,0,0,1.33-2.991c-.332-1.33-1.994-1.662-2.991-1.33a2.683,2.683,0,0,0-1.33,2.991,2.021,2.021,0,0,0,2.991,1.33" transform="translate(-48.538 -177.247)" fill="#4a8b2c"/>
          <path id="Caminho_147" data-name="Caminho 147" d="M97.694,201.813c-1.33-.332-2.659,0-2.991,1.33s0,2.659,1.33,2.991,2.659,0,2.991-1.33a2.5,2.5,0,0,0-1.33-2.991" transform="translate(-48.503 -103.429)" fill="#4a8b2c"/>
          <path id="Caminho_148" data-name="Caminho 148" d="M85.77,300.059c-.332-1.33-1.33-2.327-2.659-1.994s-2.326,1.33-1.994,2.659,1.33,2.327,2.659,1.995,2.326-1.33,1.994-2.659" transform="translate(-41.564 -152.816)" fill="#4a8b2c"/>
          <path id="Caminho_149" data-name="Caminho 149" d="M249.694,278.191l2.327-2.659c3.324,3.324,6.98,5.318,10.968,5.318,5.651,0,9.306-3.656,9.306-8.642s-3.988-8.31-9.639-8.31a14.181,14.181,0,0,0-7.977,2.327l-2.659-1.662,1-18.281H274.29v3.324H256.009l-.665,12.962a18.562,18.562,0,0,1,7.645-1.994c7.312,0,12.963,4.321,12.963,11.3,0,7.312-5.651,12.3-13.3,12.3-4.986,0-9.639-2.659-12.963-5.983" transform="translate(-128.044 -126.295)" fill="#006e43"/>
          <path id="Caminho_150" data-name="Caminho 150" d="M315.749,201.17a61.9,61.9,0,0,0-6.648-3.324,93.664,93.664,0,0,1-36.893,84.424,86.59,86.59,0,0,0,14.957,9.306c-1.995,1.33-3.989,2.659-6.316,3.989a40.787,40.787,0,0,1-8.641,3.989,54.1,54.1,0,0,0,68.469-33.57c8.642-24.6-1.995-51.851-24.928-64.813" transform="translate(-139.59 -101.456)" fill="#93d500"/>
          <path id="Caminho_151" data-name="Caminho 151" d="M171.727,261.067a94.092,94.092,0,0,1-11.3-36.229,120.377,120.377,0,0,0-14.292,7.977,53.8,53.8,0,0,1-.333-7.312,48.952,48.952,0,0,1,1.33-11.966,53.962,53.962,0,0,0,58.831,90.074,40.627,40.627,0,0,0,6.315-3.989,89.3,89.3,0,0,1-40.55-38.556" transform="translate(-64.702 -109.503)" fill="#4a8b2c"/>
          <path id="Caminho_152" data-name="Caminho 152" d="M330.964,328.4a1.222,1.222,0,0,1-1-.332.822.822,0,0,1,.333-1.33,39.651,39.651,0,0,0,5.983-4.985,42.856,42.856,0,0,0,5.318-5.65,53.363,53.363,0,0,0,10.969-21.6,61.351,61.351,0,0,0,1.329-7.645.882.882,0,0,1,1-1,1.061,1.061,0,0,1,1,1,57.073,57.073,0,0,1-7.977,23.267,31.6,31.6,0,0,1-4.985,6.647,51.022,51.022,0,0,1-5.651,6.315c-1.994,1.662-3.988,3.324-6.315,5.318h0" transform="translate(-169.097 -146.586)" fill="#fff"/>
          <path id="Caminho_153" data-name="Caminho 153" d="M184.9,328.746h-.665a46.326,46.326,0,0,1-6.316-4.985,57.746,57.746,0,0,1-14.292-20.275,63.457,63.457,0,0,1-3.989-15.622c0-.665.332-1,1-1.33.665,0,1,.333,1,.665a61.378,61.378,0,0,0,1.33,7.645A56.236,56.236,0,0,0,179.251,322.1l5.983,4.985c.332.332.665,1,.332,1.33a1.16,1.16,0,0,1-.665.332" transform="translate(-81.865 -146.936)" fill="#fff"/>
          <path id="Caminho_154" data-name="Caminho 154" d="M254.858,178.949a91.969,91.969,0,0,0-.332-16.619,41.335,41.335,0,0,1,6.647,3.324,54.539,54.539,0,0,1,12.3,9.306,54.077,54.077,0,0,0-107.69,6.98c0,2.327.332,4.985.332,7.312a94.147,94.147,0,0,1,88.745-10.3" transform="translate(-85.013 -65.609)" fill="#cddb00"/>
          <path id="Caminho_155" data-name="Caminho 155" d="M224.084,179.408a.882.882,0,0,1-1-1c0-.332.333-.665.665-1,2.326-1,4.985-1.995,7.645-2.991a68,68,0,0,1,7.977-1.662,72.264,72.264,0,0,1,16.952,0,67.981,67.981,0,0,1,7.977,1.662,36.357,36.357,0,0,1,7.645,2.991c.665.332.665.664.665,1.33a1.327,1.327,0,0,1-1.33.665,47.459,47.459,0,0,0-7.312-2.659,62.884,62.884,0,0,0-7.644-1.662,66.776,66.776,0,0,0-16.286,0,51.64,51.64,0,0,0-7.645,1.662,64.646,64.646,0,0,0-7.312,2.659Z" transform="translate(-114.4 -88.337)" fill="#fff"/>
        </g>
      </g>
    </g>
  </g>
</svg>
