<svg id="Grupo_472" data-name="Grupo 472" xmlns="http://www.w3.org/2000/svg" xmlns:xlink="http://www.w3.org/1999/xlink" width="78.879" height="154" viewBox="0 0 78.879 154">
  <defs>
    <clipPath id="clip-path">
      <rect id="Retângulo_20" data-name="Retângulo 20" width="78.879" height="154" fill="#386011"/>
    </clipPath>
  </defs>
  <g id="Grupo_471" data-name="Grupo 471" clip-path="url(#clip-path)">
    <path id="Caminho_171" data-name="Caminho 171" d="M77,67.609H42.044L63.758,2.473a1.878,1.878,0,0,0-3.3-1.7L.36,83.407a1.877,1.877,0,0,0,1.519,2.982H36.835L15.12,151.525a1.879,1.879,0,0,0,3.3,1.7l60.1-82.632A1.876,1.876,0,0,0,77,67.609" fill="#386011"/>
    <path id="Caminho_172" data-name="Caminho 172" d="M22.522,141.2l18.7-56.094a1.878,1.878,0,0,0-1.782-2.472H5.565L56.356,12.8l-18.7,56.095a1.878,1.878,0,0,0,1.782,2.472H73.313Z" fill="#386011"/>
  </g>
</svg>
