<svg id="Grupo_466" data-name="Grupo 466" xmlns="http://www.w3.org/2000/svg" xmlns:xlink="http://www.w3.org/1999/xlink" width="108.312" height="148.128" viewBox="0 0 108.312 148.128">
  <defs>
    <clipPath id="clip-path">
      <rect id="Retângulo_17" data-name="Retângulo 17" width="108.312" height="148.128" fill="#386011"/>
    </clipPath>
  </defs>
  <g id="Grupo_465" data-name="Grupo 465" clip-path="url(#clip-path)">
    <path id="Caminho_158" data-name="Caminho 158" d="M63.648,23a40.748,40.748,0,1,0,40.807,40.748A40.789,40.789,0,0,0,63.648,23M80.554,89.806,63.648,79.546,46.684,89.806l4.547-19.3L36.191,57.569l19.82-1.632,7.637-18.3,7.637,18.3,19.762,1.632L76.007,70.511Z" transform="translate(-9.55 -9.592)" fill="#386011"/>
    <path id="Caminho_159" data-name="Caminho 159" d="M54.156,0A54.137,54.137,0,0,0,40.865,106.622c.058,0,.117.058.175.058.7.175,1.457.35,2.215.525a3.008,3.008,0,0,0,.641.117c.233.058.466.058.641.117H44.6c.408.058.758.117,1.166.175a2.525,2.525,0,0,1,.291.058,5.744,5.744,0,0,0,.991.117,7.9,7.9,0,0,0,1.166.117,3.849,3.849,0,0,0,.816.058c.408.058.816.058,1.224.117,1.282.117,2.623.117,3.906.117s2.623-.058,3.906-.117c.408-.058.816-.058,1.224-.117a3.849,3.849,0,0,1,.816-.058c.35-.058.758-.058,1.166-.117a5.742,5.742,0,0,1,.991-.117,2.525,2.525,0,0,0,.291-.058c.408-.058.758-.117,1.166-.175h.058c.233-.058.466-.058.641-.117s.466-.058.641-.117c.758-.175,1.457-.35,2.215-.525.058,0,.117-.058.175-.058A54.137,54.137,0,0,0,54.156,0M54.1,102.541a48.385,48.385,0,1,1,48.385-48.385A48.415,48.415,0,0,1,54.1,102.541" transform="translate(0 0)" fill="#386011"/>
    <path id="Caminho_160" data-name="Caminho 160" d="M63.648,23a40.748,40.748,0,1,0,40.807,40.748A40.789,40.789,0,0,0,63.648,23M80.554,89.806,63.648,79.546,46.684,89.806l4.547-19.3L36.191,57.569l19.82-1.632,7.637-18.3,7.637,18.3,19.762,1.632L76.007,70.511Z" transform="translate(-9.55 -9.592)" fill="#386011"/>
    <path id="Caminho_161" data-name="Caminho 161" d="M49.962,190.186c-.175-.058-.35-.058-.525-.117-.291-.058-.641-.117-.933-.175-.35-.058-.758-.175-1.108-.233-.991-.233-1.982-.466-2.973-.758-.583-.175-1.108-.292-1.691-.525-.525-.175-1.108-.35-1.691-.525l-1.049-.35a.842.842,0,0,0-.408-.117c-1.049-.408-2.04-.816-3.031-1.224A57.034,57.034,0,0,1,26.76,180.8L17.2,216.535l13.583-9.152a4.016,4.016,0,0,1,2.1-.641,5.744,5.744,0,0,1,.991.117,3.949,3.949,0,0,1,2.448,1.982l7.17,14.69,8.8-32.878c-.117,0-.233-.058-.35-.058-.408-.058-.816-.117-1.166-.175-.35-.117-.583-.175-.816-.233" transform="translate(-7.173 -75.402)" fill="#386011"/>
    <path id="Caminho_162" data-name="Caminho 162" d="M123.981,185.98a27.445,27.445,0,0,1-3.031,1.224,1.081,1.081,0,0,1-.408.117l-1.049.35c-.583.175-1.108.35-1.691.525s-1.108.35-1.691.525c-.991.291-1.982.525-2.973.758a7.493,7.493,0,0,1-1.108.233c-.291.058-.641.117-.933.175-.175.058-.35.058-.525.117a3.412,3.412,0,0,1-.758.117c-.408.058-.816.117-1.166.175a.739.739,0,0,1-.35.058l8.8,32.878,7.17-14.69a3.8,3.8,0,0,1,2.448-1.982,3.628,3.628,0,0,1,3.09.525l13.583,9.152-9.56-35.735a60.47,60.47,0,0,1-9.852,5.48" transform="translate(-45.166 -75.277)" fill="#386011"/>
    <path id="Caminho_163" data-name="Caminho 163" d="M63.648,23a40.748,40.748,0,1,0,40.807,40.748A40.789,40.789,0,0,0,63.648,23M80.554,89.806,63.648,79.546,46.684,89.806l4.547-19.3L36.191,57.569l19.82-1.632,7.637-18.3,7.637,18.3,19.762,1.632L76.007,70.511Z" transform="translate(-9.55 -9.592)" fill="#386011"/>
  </g>
</svg>
