<svg id="Grupo_449" data-name="Grupo 449" xmlns="http://www.w3.org/2000/svg" xmlns:xlink="http://www.w3.org/1999/xlink" width="350" height="70.589" viewBox="0 0 350 70.589">
  <defs>
    <clipPath id="clip-path">
      <rect id="Retângulo_7" data-name="Retângulo 7" width="350" height="70.589" fill="#386011"/>
    </clipPath>
  </defs>
  <g id="Grupo_448" data-name="Grupo 448" transform="translate(0 0)" clip-path="url(#clip-path)">
    <path id="Caminho_69" data-name="Caminho 69" d="M0,74.442S47.542,59.567,174.651,59.567C302.692,59.567,350,74.325,350,74.325s-57.867-10.15-175.349-10.15C57.166,64.233,0,74.442,0,74.442" transform="translate(0 -21.154)" fill="#386011"/>
    <path id="Caminho_70" data-name="Caminho 70" d="M86.811.22h4.915l8.128,24.62L107.745.314h6.1L102.311,33.63H97.3L89.173,9.86,81.046,33.63H76.036L64.506.314h6.285L78.683,24.84Z" transform="translate(-22.908 -0.078)" fill="#386011"/>
    <path id="Caminho_71" data-name="Caminho 71" d="M161.473,33.445h-5.859V20.4L142.477.366h6.852l9.262,14.649L167.948.366h6.663L161.473,20.261Z" transform="translate(-50.598 -0.13)" fill="#386011"/>
    <path id="Caminho_72" data-name="Caminho 72" d="M222.255.366h5.765V33.445h-4.858L204.96,9.912V33.445h-5.765V.366h5.376l17.684,22.872Z" transform="translate(-70.74 -0.13)" fill="#386011"/>
    <path id="Caminho_73" data-name="Caminho 73" d="M284.7,23.4a15.351,15.351,0,0,1-3.616,5.269,17.094,17.094,0,0,1-5.576,3.5,19.232,19.232,0,0,1-7.112,1.276H256.059V.367h12.333A19.562,19.562,0,0,1,275.5,1.619a16.8,16.8,0,0,1,5.576,3.473,15.422,15.422,0,0,1,3.616,5.245,16.617,16.617,0,0,1,1.276,6.521A16.783,16.783,0,0,1,284.7,23.4m-5.65-10.981a10.79,10.79,0,0,0-2.322-3.583A10.468,10.468,0,0,0,273.1,6.467a12.639,12.639,0,0,0-4.737-.855h-6.539V28.2h6.539a12.966,12.966,0,0,0,4.737-.83,10.355,10.355,0,0,0,3.625-2.325,10.529,10.529,0,0,0,2.322-3.56,12.055,12.055,0,0,0,.83-4.532,12.054,12.054,0,0,0-.83-4.531" transform="translate(-90.935 -0.13)" fill="#386011"/>
    <path id="Caminho_74" data-name="Caminho 74" d="M318.1,19.505v13.94h-5.765V.366H318.1V14.118h15.878V.366h5.766V33.445h-5.766V19.505Z" transform="translate(-110.921 -0.13)" fill="#386011"/>
    <path id="Caminho_75" data-name="Caminho 75" d="M397.1,33.316H390.96L387.6,25.329H371.963l-3.4,7.987h-5.955L377.161,0h5.387ZM379.76,6.948l-5.67,13.231h11.388Z" transform="translate(-128.773 0)" fill="#386011"/>
    <path id="Caminho_76" data-name="Caminho 76" d="M440.171,25.317h-.189l-10.349-15.5V33.445h-5.765V.367h6.191l10.066,15.641L450.189.367h6.191V33.445h-5.766V9.723Z" transform="translate(-150.529 -0.13)" fill="#386011"/>
    <path id="Caminho_77" data-name="Caminho 77" d="M204.5,97.76a10.8,10.8,0,0,1-3.681,1.47,11.171,11.171,0,0,1-2.211.213,9.776,9.776,0,0,1-3.744-.691,8.359,8.359,0,0,1-4.724-4.787,9.724,9.724,0,0,1-.653-3.593,9.356,9.356,0,0,1,.666-3.518A8.8,8.8,0,0,1,194.9,81.98a9.052,9.052,0,0,1,3.656-.729,12.407,12.407,0,0,1,2.1.163,9.729,9.729,0,0,1,1.746.466,8.818,8.818,0,0,1,1.52.741,11.193,11.193,0,0,1,1.395,1.018l-1.96,2.336a11.086,11.086,0,0,0-1.031-.779,6.371,6.371,0,0,0-1.105-.59,6.773,6.773,0,0,0-1.269-.377,7.76,7.76,0,0,0-1.52-.138,5.214,5.214,0,0,0-2.249.491,5.609,5.609,0,0,0-1.81,1.347,6.433,6.433,0,0,0-1.206,1.989,6.618,6.618,0,0,0-.44,2.417,7.219,7.219,0,0,0,.427,2.518,5.841,5.841,0,0,0,1.219,2,5.675,5.675,0,0,0,1.884,1.323,6.059,6.059,0,0,0,2.451.478,7.344,7.344,0,0,0,2.349-.366,6.624,6.624,0,0,0,1.9-.972v-3.31h-4.5V89.317h7.488V96.7A13.082,13.082,0,0,1,204.5,97.76" transform="translate(-67.294 -28.855)" fill="#386011"/>
    <path id="Caminho_78" data-name="Caminho 78" d="M239.19,99.308l-4.335-6.131h-3.881v6.131h-3.066V81.719h7.84a8.943,8.943,0,0,1,2.726.389,5.922,5.922,0,0,1,2.06,1.106,4.759,4.759,0,0,1,1.294,1.759,6.269,6.269,0,0,1,.138,4.3A5.093,5.093,0,0,1,241.1,90.8a5.205,5.205,0,0,1-1.319,1.13,6.492,6.492,0,0,1-1.7.716l4.749,6.659Zm-1.008-14.056a4.3,4.3,0,0,0-2.7-.744h-4.512v5.93h4.537a4.041,4.041,0,0,0,2.646-.807,2.661,2.661,0,0,0,.983-2.17,2.626,2.626,0,0,0-.958-2.208" transform="translate(-80.938 -29.021)" fill="#386011"/>
    <path id="Caminho_79" data-name="Caminho 79" d="M275.759,84.508h-9.95v4.523h8.82V91.82h-8.82v4.7h10.076v2.789H262.743V81.719h13.016Z" transform="translate(-93.309 -29.021)" fill="#386011"/>
    <path id="Caminho_80" data-name="Caminho 80" d="M308.529,84.508h-9.95v4.523h8.82V91.82h-8.82v4.7h10.076v2.789H295.513V81.719h13.016Z" transform="translate(-104.946 -29.021)" fill="#386011"/>
    <path id="Caminho_81" data-name="Caminho 81" d="M340.544,81.719h3.066V99.308h-2.583l-9.68-12.513V99.308h-3.066V81.719h2.859l9.4,12.162Z" transform="translate(-116.584 -29.021)" fill="#386011"/>
  </g>
</svg>
